<svg width="400" height="400" viewBox="0 0 790 513" fill="none" xmlns="http://www.w3.org/2000/svg">
<path d="M720.563 510.693L698 442.602C698 442.602 722.818 467.42 722.818 487.784L718.364 440.693C718.364 440.693 731.091 457.875 729.818 483.966C728.545 510.057 720.563 510.693 720.563 510.693Z" fill="#99E39E"/>
<path d="M236.021 448.693L214 382.239C214 382.239 238.222 406.461 238.222 426.335L233.874 380.376C233.874 380.376 246.295 397.145 245.053 422.608C243.811 448.072 236.021 448.693 236.021 448.693Z" fill="#99E39E"/>
<path d="M579.726 479.359C579.763 523.074 493.061 509.627 386.916 509.719C280.772 509.81 195.381 523.405 195.343 479.691C195.305 435.976 281.976 426.393 388.121 426.302C494.265 426.21 579.688 435.644 579.726 479.359Z" fill="#E6E6E6"/>
<path d="M361.722 466.494C396.51 466.494 424.711 438.293 424.711 403.505C424.711 368.717 396.51 340.515 361.722 340.515C326.934 340.515 298.732 368.717 298.732 403.505C298.732 438.293 326.934 466.494 361.722 466.494Z" fill="#99E39E"/>
<path d="M319.656 336.04C310.926 336.04 302.383 333.51 295.062 328.756C287.74 324.002 281.953 317.228 278.401 309.253L178.449 84.1616C175.138 76.7054 173.387 68.6509 173.303 60.493C173.219 52.3352 174.805 44.2465 177.963 36.724C181.12 29.2015 185.783 22.4043 191.664 16.75C197.545 11.0958 204.52 6.70401 212.161 3.84467C219.801 0.985328 227.946 -0.28118 236.095 0.123006C244.243 0.527192 252.222 2.59353 259.543 6.195C266.863 9.79647 273.369 14.857 278.662 21.0655C283.954 27.274 287.921 34.4993 290.319 42.2973L362.696 277.709C364.768 284.448 365.231 291.578 364.048 298.528C362.864 305.477 360.067 312.053 355.882 317.725C351.696 323.398 346.238 328.01 339.947 331.19C333.656 334.371 326.706 336.032 319.656 336.04Z" fill="#99E39E"/>
</svg>
