<svg width="50" height="30" viewBox="0 0 125 100" fill="none" xmlns="http://www.w3.org/2000/svg">
<path d="M2.11973 100C0.869727 100 0.244727 99.375 0.244727 98.125V28.6C0.244727 27.8 0.494727 27.05 0.994727 26.35L18.6947 1.14999C19.2447 0.399995 20.0447 0.0249952 21.0947 0.0249952H47.9447C49.0447 0.0249952 49.8447 0.399995 50.3447 1.14999L68.1947 26.35C68.6947 27.05 68.9447 27.8 68.9447 28.6V98.125C68.9447 99.375 68.3197 100 67.0697 100H39.6197C38.3697 100 37.7447 99.375 37.7447 98.125V70H31.4447V98.125C31.4447 99.375 30.8197 100 29.5697 100H2.11973ZM34.5947 43.975C36.7447 43.975 38.4947 43.3 39.8447 41.95C41.1947 40.6 41.8697 38.875 41.8697 36.775C41.8697 34.625 41.1947 32.875 39.8447 31.525C38.4947 30.175 36.7447 29.5 34.5947 29.5C32.4447 29.5 30.6947 30.175 29.3447 31.525C27.9947 32.875 27.3197 34.625 27.3197 36.775C27.3197 38.875 27.9947 40.6 29.3447 41.95C30.6947 43.3 32.4447 43.975 34.5947 43.975ZM101.945 100C100.645 100 99.6447 99.675 98.9447 99.025L90.6197 90.625L76.4447 76.525C75.8947 75.975 75.5447 75.55 75.3947 75.25C75.2947 74.9 75.2447 74.325 75.2447 73.525V26.5C75.2447 25.65 75.2947 25.075 75.3947 24.775C75.5447 24.475 75.8947 24.05 76.4447 23.5L87.6947 12.1L98.9447 0.999996C99.3947 0.549993 99.8447 0.274992 100.295 0.174993C100.745 0.0749946 101.295 0.0249952 101.945 0.0249952H122.945C124.195 0.0249952 124.82 0.649995 124.82 1.89999V22.6C124.82 23.05 124.77 23.475 124.67 23.875C124.62 24.225 124.395 24.6 123.995 25L114.095 34.75L106.22 42.775V58.525L115.07 67.525L123.995 76.225C124.395 76.575 124.62 76.95 124.67 77.35C124.77 77.75 124.82 78.175 124.82 78.625V98.125C124.82 99.375 124.195 100 122.945 100H101.945Z" fill="#99E39E"/>
</svg>
