<svg width="107" height="68" viewBox="0 0 107 68" fill="none" xmlns="http://www.w3.org/2000/svg">
<path d="M17.3492 59.97C17.2892 59.99 17.2092 60.01 17.1092 60.03C17.0092 60.06 16.8992 60.075 16.7792 60.075C16.3392 60.075 16.1192 59.89 16.1192 59.52V51.54C16.1192 51.38 16.1592 51.26 16.2392 51.18C16.3192 51.09 16.4442 51.02 16.6142 50.97C16.9042 50.88 17.2592 50.815 17.6792 50.775C18.1092 50.735 18.5242 50.715 18.9242 50.715C20.1842 50.715 21.1192 50.97 21.7292 51.48C22.3492 51.98 22.6592 52.695 22.6592 53.625C22.6592 54.315 22.4792 54.895 22.1192 55.365C21.7692 55.835 21.2342 56.17 20.5142 56.37C20.7642 56.69 21.0142 57.01 21.2642 57.33C21.5142 57.65 21.7492 57.955 21.9692 58.245C22.1992 58.525 22.3992 58.78 22.5692 59.01C22.7492 59.24 22.8892 59.42 22.9892 59.55C22.9492 59.72 22.8592 59.855 22.7192 59.955C22.5892 60.055 22.4542 60.105 22.3142 60.105C22.1442 60.105 22.0042 60.065 21.8942 59.985C21.7842 59.905 21.6692 59.78 21.5492 59.61L19.3592 56.55H17.3492V59.97ZM19.0592 55.53C19.7992 55.53 20.3792 55.37 20.7992 55.05C21.2192 54.73 21.4292 54.255 21.4292 53.625C21.4292 52.995 21.2092 52.525 20.7692 52.215C20.3292 51.895 19.6992 51.735 18.8792 51.735C18.6092 51.735 18.3342 51.75 18.0542 51.78C17.7842 51.8 17.5442 51.83 17.3342 51.87V55.53H19.0592ZM25.4507 57.24C25.7207 58.55 26.5807 59.205 28.0307 59.205C28.4507 59.205 28.8307 59.135 29.1707 58.995C29.5107 58.855 29.7807 58.705 29.9807 58.545C30.2207 58.685 30.3407 58.875 30.3407 59.115C30.3407 59.255 30.2757 59.39 30.1457 59.52C30.0257 59.65 29.8557 59.765 29.6357 59.865C29.4257 59.965 29.1757 60.045 28.8857 60.105C28.6057 60.165 28.3007 60.195 27.9707 60.195C26.8107 60.195 25.8907 59.88 25.2107 59.25C24.5407 58.62 24.2057 57.7 24.2057 56.49C24.2057 55.92 24.2857 55.415 24.4457 54.975C24.6157 54.525 24.8457 54.145 25.1357 53.835C25.4357 53.525 25.7907 53.29 26.2007 53.13C26.6107 52.96 27.0557 52.875 27.5357 52.875C27.9857 52.875 28.4007 52.95 28.7807 53.1C29.1607 53.25 29.4857 53.465 29.7557 53.745C30.0357 54.015 30.2507 54.34 30.4007 54.72C30.5607 55.09 30.6407 55.5 30.6407 55.95C30.6407 56.17 30.5907 56.33 30.4907 56.43C30.3907 56.52 30.2507 56.575 30.0707 56.595L25.4507 57.24ZM27.5207 53.85C26.9107 53.85 26.4057 54.065 26.0057 54.495C25.6057 54.915 25.3957 55.52 25.3757 56.31L29.5007 55.74C29.4507 55.19 29.2557 54.74 28.9157 54.39C28.5857 54.03 28.1207 53.85 27.5207 53.85ZM35.584 53.88C35.244 53.88 34.929 53.94 34.639 54.06C34.349 54.17 34.099 54.34 33.889 54.57C33.679 54.79 33.514 55.07 33.394 55.41C33.274 55.74 33.214 56.12 33.214 56.55C33.214 57.41 33.429 58.07 33.859 58.53C34.289 58.98 34.864 59.205 35.584 59.205C36.004 59.205 36.354 59.15 36.634 59.04C36.914 58.92 37.164 58.785 37.384 58.635C37.494 58.695 37.584 58.77 37.654 58.86C37.724 58.95 37.759 59.06 37.759 59.19C37.759 59.33 37.704 59.46 37.594 59.58C37.484 59.7 37.329 59.805 37.129 59.895C36.939 59.985 36.709 60.055 36.439 60.105C36.179 60.165 35.894 60.195 35.584 60.195C35.064 60.195 34.584 60.12 34.144 59.97C33.704 59.82 33.324 59.595 33.004 59.295C32.684 58.995 32.434 58.62 32.254 58.17C32.074 57.71 31.984 57.17 31.984 56.55C31.984 55.94 32.079 55.41 32.269 54.96C32.459 54.5 32.714 54.115 33.034 53.805C33.354 53.495 33.729 53.265 34.159 53.115C34.599 52.955 35.064 52.875 35.554 52.875C35.864 52.875 36.149 52.905 36.409 52.965C36.679 53.015 36.909 53.09 37.099 53.19C37.289 53.29 37.434 53.405 37.534 53.535C37.644 53.655 37.699 53.78 37.699 53.91C37.699 54.03 37.664 54.135 37.594 54.225C37.524 54.315 37.434 54.385 37.324 54.435C37.104 54.285 36.864 54.155 36.604 54.045C36.344 53.935 36.004 53.88 35.584 53.88ZM45.7963 56.535C45.7963 57.095 45.7163 57.6 45.5563 58.05C45.3963 58.5 45.1663 58.885 44.8663 59.205C44.5763 59.525 44.2213 59.77 43.8013 59.94C43.3813 60.11 42.9113 60.195 42.3913 60.195C41.8713 60.195 41.4013 60.11 40.9813 59.94C40.5613 59.77 40.2013 59.525 39.9013 59.205C39.6013 58.885 39.3713 58.5 39.2113 58.05C39.0513 57.6 38.9713 57.095 38.9713 56.535C38.9713 55.975 39.0513 55.47 39.2113 55.02C39.3813 54.57 39.6163 54.185 39.9163 53.865C40.2163 53.545 40.5763 53.3 40.9963 53.13C41.4163 52.96 41.8813 52.875 42.3913 52.875C42.9013 52.875 43.3663 52.96 43.7863 53.13C44.2063 53.3 44.5613 53.545 44.8513 53.865C45.1513 54.185 45.3813 54.57 45.5413 55.02C45.7113 55.47 45.7963 55.975 45.7963 56.535ZM42.3913 53.865C41.7113 53.865 41.1763 54.1 40.7863 54.57C40.3963 55.04 40.2013 55.695 40.2013 56.535C40.2013 57.385 40.3913 58.045 40.7713 58.515C41.1613 58.975 41.7013 59.205 42.3913 59.205C43.0813 59.205 43.6163 58.97 43.9963 58.5C44.3763 58.03 44.5663 57.375 44.5663 56.535C44.5663 55.695 44.3713 55.04 43.9813 54.57C43.6013 54.1 43.0713 53.865 42.3913 53.865ZM48.8523 59.97C48.8023 59.99 48.7273 60.01 48.6273 60.03C48.5273 60.06 48.4173 60.075 48.2973 60.075C47.8673 60.075 47.6523 59.895 47.6523 59.535V54.45C47.6523 54.22 47.6923 54.04 47.7723 53.91C47.8623 53.77 48.0073 53.635 48.2073 53.505C48.4673 53.335 48.8173 53.19 49.2573 53.07C49.7073 52.94 50.2123 52.875 50.7723 52.875C51.5723 52.875 51.9723 53.075 51.9723 53.475C51.9723 53.575 51.9573 53.67 51.9273 53.76C51.8973 53.84 51.8573 53.91 51.8073 53.97C51.7073 53.95 51.5773 53.93 51.4173 53.91C51.2573 53.89 51.0973 53.88 50.9373 53.88C50.4773 53.88 50.0723 53.93 49.7223 54.03C49.3723 54.12 49.0823 54.23 48.8523 54.36V59.97ZM59.1584 58.86C59.1584 59.06 59.1134 59.215 59.0234 59.325C58.9434 59.435 58.8134 59.545 58.6334 59.655C58.4334 59.785 58.1484 59.905 57.7784 60.015C57.4084 60.135 56.9834 60.195 56.5034 60.195C55.9634 60.195 55.4684 60.125 55.0184 59.985C54.5684 59.845 54.1784 59.63 53.8484 59.34C53.5284 59.04 53.2784 58.665 53.0984 58.215C52.9284 57.755 52.8434 57.205 52.8434 56.565C52.8434 55.915 52.9334 55.36 53.1134 54.9C53.2934 54.43 53.5334 54.045 53.8334 53.745C54.1434 53.445 54.5034 53.225 54.9134 53.085C55.3334 52.945 55.7784 52.875 56.2484 52.875C56.5684 52.875 56.8784 52.915 57.1784 52.995C57.4784 53.075 57.7384 53.175 57.9584 53.295V50.28C58.0084 50.26 58.0834 50.24 58.1834 50.22C58.2934 50.19 58.4034 50.175 58.5134 50.175C58.9434 50.175 59.1584 50.355 59.1584 50.715V58.86ZM57.9584 54.375C57.7584 54.235 57.5284 54.115 57.2684 54.015C57.0084 53.915 56.7084 53.865 56.3684 53.865C56.0584 53.865 55.7634 53.915 55.4834 54.015C55.2134 54.105 54.9734 54.26 54.7634 54.48C54.5534 54.69 54.3834 54.97 54.2534 55.32C54.1334 55.67 54.0734 56.095 54.0734 56.595C54.0734 57.515 54.2934 58.18 54.7334 58.59C55.1734 59 55.7584 59.205 56.4884 59.205C56.8384 59.205 57.1234 59.17 57.3434 59.1C57.5734 59.02 57.7784 58.925 57.9584 58.815V54.375ZM62.8765 55.65V59.985C62.8165 60.005 62.7365 60.025 62.6365 60.045C62.5365 60.075 62.4265 60.09 62.3065 60.09C61.8665 60.09 61.6465 59.905 61.6465 59.535V50.91C61.6965 50.89 61.7715 50.87 61.8715 50.85C61.9815 50.82 62.0965 50.805 62.2165 50.805C62.6565 50.805 62.8765 50.99 62.8765 51.36V55.095L67.0015 50.82C67.2615 50.83 67.4565 50.895 67.5865 51.015C67.7165 51.135 67.7815 51.275 67.7815 51.435C67.7815 51.565 67.7465 51.685 67.6765 51.795C67.6065 51.905 67.5065 52.025 67.3765 52.155L64.1365 55.335C65.0465 56.225 65.8315 57.02 66.4915 57.72C67.1615 58.41 67.7365 58.97 68.2165 59.4C68.1965 59.62 68.1265 59.795 68.0065 59.925C67.8965 60.045 67.7515 60.105 67.5715 60.105C67.4015 60.105 67.2465 60.06 67.1065 59.97C66.9765 59.87 66.8415 59.75 66.7015 59.61L62.8765 55.65ZM70.4507 57.24C70.7207 58.55 71.5807 59.205 73.0307 59.205C73.4507 59.205 73.8307 59.135 74.1707 58.995C74.5107 58.855 74.7807 58.705 74.9807 58.545C75.2207 58.685 75.3407 58.875 75.3407 59.115C75.3407 59.255 75.2757 59.39 75.1457 59.52C75.0257 59.65 74.8557 59.765 74.6357 59.865C74.4257 59.965 74.1757 60.045 73.8857 60.105C73.6057 60.165 73.3007 60.195 72.9707 60.195C71.8107 60.195 70.8907 59.88 70.2107 59.25C69.5407 58.62 69.2057 57.7 69.2057 56.49C69.2057 55.92 69.2857 55.415 69.4457 54.975C69.6157 54.525 69.8457 54.145 70.1357 53.835C70.4357 53.525 70.7907 53.29 71.2007 53.13C71.6107 52.96 72.0557 52.875 72.5357 52.875C72.9857 52.875 73.4007 52.95 73.7807 53.1C74.1607 53.25 74.4857 53.465 74.7557 53.745C75.0357 54.015 75.2507 54.34 75.4007 54.72C75.5607 55.09 75.6407 55.5 75.6407 55.95C75.6407 56.17 75.5907 56.33 75.4907 56.43C75.3907 56.52 75.2507 56.575 75.0707 56.595L70.4507 57.24ZM72.5207 53.85C71.9107 53.85 71.4057 54.065 71.0057 54.495C70.6057 54.915 70.3957 55.52 70.3757 56.31L74.5007 55.74C74.4507 55.19 74.2557 54.74 73.9157 54.39C73.5857 54.03 73.1207 53.85 72.5207 53.85ZM78.229 57.24C78.499 58.55 79.359 59.205 80.809 59.205C81.229 59.205 81.609 59.135 81.949 58.995C82.289 58.855 82.559 58.705 82.759 58.545C82.999 58.685 83.119 58.875 83.119 59.115C83.119 59.255 83.054 59.39 82.924 59.52C82.804 59.65 82.634 59.765 82.414 59.865C82.204 59.965 81.954 60.045 81.664 60.105C81.384 60.165 81.079 60.195 80.749 60.195C79.589 60.195 78.669 59.88 77.989 59.25C77.319 58.62 76.984 57.7 76.984 56.49C76.984 55.92 77.064 55.415 77.224 54.975C77.394 54.525 77.624 54.145 77.914 53.835C78.214 53.525 78.569 53.29 78.979 53.13C79.389 52.96 79.834 52.875 80.314 52.875C80.764 52.875 81.179 52.95 81.559 53.1C81.939 53.25 82.264 53.465 82.534 53.745C82.814 54.015 83.029 54.34 83.179 54.72C83.339 55.09 83.419 55.5 83.419 55.95C83.419 56.17 83.369 56.33 83.269 56.43C83.169 56.52 83.029 56.575 82.849 56.595L78.229 57.24ZM80.299 53.85C79.689 53.85 79.184 54.065 78.784 54.495C78.384 54.915 78.174 55.52 78.154 56.31L82.279 55.74C82.229 55.19 82.034 54.74 81.694 54.39C81.364 54.03 80.899 53.85 80.299 53.85ZM88.1073 60.195C87.7573 60.195 87.4273 60.155 87.1173 60.075C86.8073 59.995 86.5523 59.9 86.3523 59.79V62.7C86.3023 62.72 86.2273 62.74 86.1273 62.76C86.0273 62.79 85.9173 62.805 85.7973 62.805C85.3673 62.805 85.1523 62.62 85.1523 62.25V54.33C85.1523 54.13 85.1873 53.97 85.2573 53.85C85.3273 53.73 85.4723 53.605 85.6923 53.475C85.9623 53.325 86.2823 53.19 86.6523 53.07C87.0323 52.94 87.4623 52.875 87.9423 52.875C88.4323 52.875 88.8923 52.945 89.3223 53.085C89.7623 53.225 90.1373 53.445 90.4473 53.745C90.7673 54.035 91.0173 54.41 91.1973 54.87C91.3873 55.33 91.4823 55.88 91.4823 56.52C91.4823 57.14 91.3973 57.68 91.2273 58.14C91.0673 58.6 90.8373 58.985 90.5373 59.295C90.2373 59.595 89.8773 59.82 89.4573 59.97C89.0473 60.12 88.5973 60.195 88.1073 60.195ZM87.9423 59.205C88.6423 59.205 89.2023 58.995 89.6223 58.575C90.0523 58.145 90.2673 57.46 90.2673 56.52C90.2673 56.03 90.2023 55.615 90.0723 55.275C89.9523 54.935 89.7823 54.66 89.5623 54.45C89.3523 54.24 89.1073 54.09 88.8273 54C88.5473 53.91 88.2523 53.865 87.9423 53.865C87.5823 53.865 87.2773 53.91 87.0273 54C86.7773 54.09 86.5523 54.19 86.3523 54.3V58.725C86.5423 58.865 86.7673 58.98 87.0273 59.07C87.2873 59.16 87.5923 59.205 87.9423 59.205Z" fill="#999797"/>
<path d="M48.5178 44C47.1845 44 46.1311 43.6 45.3578 42.8C44.5845 41.9733 44.1711 40.9067 44.1178 39.6C44.0111 37.3333 43.4378 35.7333 42.3978 34.8C41.3845 33.84 40.0245 33.36 38.3178 33.36H37.5178V39.76C37.5178 41.1467 37.1445 42.2 36.3978 42.92C35.6511 43.64 34.6645 44 33.4378 44C32.1311 44 31.1045 43.64 30.3578 42.92C29.6111 42.2 29.2378 41.1467 29.2378 39.76V34.12C29.2378 31.2933 29.6511 29.1467 30.4778 27.68C31.3311 26.2133 32.4111 25.16 33.7178 24.52L33.5178 23.76H32.8778C31.6511 23.76 30.6778 23.3733 29.9578 22.6C29.2645 21.8 28.8911 20.72 28.8378 19.36C28.8111 18.0267 29.1711 16.9467 29.9178 16.12C30.6645 15.2933 31.6511 14.88 32.8778 14.88H43.0778C45.9311 14.88 48.2378 15.5733 49.9978 16.96C51.7578 18.3467 52.6378 20.56 52.6378 23.6C52.6378 25.1733 52.3711 26.4933 51.8378 27.56C51.3045 28.6 50.6245 29.4 49.7978 29.96C48.9711 30.52 48.1045 30.8533 47.1978 30.96V31.48C48.8511 31.88 50.2111 32.76 51.2778 34.12C52.3711 35.48 52.9178 37.3067 52.9178 39.6C52.9178 41.0667 52.5178 42.1733 51.7178 42.92C50.9445 43.64 49.8778 44 48.5178 44ZM37.3178 27.24C37.3178 27.8267 37.4245 28.2133 37.6378 28.4C37.8511 28.5867 38.2511 28.68 38.8378 28.68H42.5978C43.7178 28.68 44.5311 28.4267 45.0378 27.92C45.5445 27.4133 45.7978 26.7067 45.7978 25.8C45.7978 24.8667 45.5445 24.1467 45.0378 23.64C44.5311 23.1333 43.7178 22.88 42.5978 22.88H38.8378C38.2511 22.88 37.8511 22.96 37.6378 23.12C37.4245 23.28 37.3178 23.6667 37.3178 24.28V27.24ZM63.6209 25.96L69.6209 17.48C70.6876 15.96 71.8476 15.1067 73.1009 14.92C74.3543 14.7067 75.4876 15 76.5009 15.8C77.1676 16.3067 77.6076 16.9867 77.8209 17.84C78.0343 18.6933 77.9676 19.6 77.6209 20.56C77.2743 21.52 76.5809 22.4267 75.5409 23.28L68.8609 28.68V29.52C69.7143 29.52 70.7143 29.6267 71.8609 29.84C73.0076 30.0533 74.0476 30.5333 74.9809 31.28C75.7276 31.84 76.3676 32.48 76.9009 33.2C77.4609 33.92 77.9009 34.8133 78.2209 35.88C78.5409 36.92 78.7009 38.24 78.7009 39.84C78.7009 41.1467 78.3409 42.2 77.6209 43C76.9276 43.7733 75.8876 44.16 74.5009 44.16C73.1143 44.16 72.0476 43.7733 71.3009 43C70.5809 42.2 70.2209 41.1467 70.2209 39.84C70.2209 38.3733 69.9809 37.2133 69.5009 36.36C69.0476 35.48 68.4343 34.84 67.6609 34.44C66.8876 34.04 66.0476 33.84 65.1409 33.84H63.1809V40.12C63.1809 41.2667 62.7809 42.2133 61.9809 42.96C61.2076 43.7067 60.2076 44.08 58.9809 44.08C57.7543 44.08 56.7409 43.7067 55.9409 42.96C55.1676 42.2133 54.7809 41.2667 54.7809 40.12V18.96C54.7809 17.7867 55.1676 16.8 55.9409 16C56.7143 15.2 57.7276 14.8 58.9809 14.8C60.3143 14.8 61.3409 15.2 62.0609 16C62.8076 16.7733 63.1809 17.7333 63.1809 18.88V25.88L63.6209 25.96Z" fill="white"/>
</svg>
