<svg width="182" height="32" viewBox="0 0 182 32" fill="none" xmlns="http://www.w3.org/2000/svg">
<path d="M31.4997 21.56C31.953 21.56 32.1797 22.1733 32.1797 23.4C32.1797 24.0667 31.8997 24.88 31.3397 25.84C30.7797 26.7733 30.0464 27.64 29.1397 28.44C28.2597 29.2133 27.273 29.8533 26.1797 30.36C25.0864 30.8667 24.0197 31.12 22.9797 31.12C21.4064 31.12 20.313 30.7333 19.6997 29.96C19.113 29.16 18.8197 28 18.8197 26.48C18.8197 24.9333 19.4197 22.2933 20.6197 18.56C16.9397 18.4 14.2597 18.32 12.5797 18.32H12.0197C11.5397 21.28 11.2997 24.3867 11.2997 27.64C11.2997 29.08 10.753 30.0667 9.65969 30.6C9.15302 30.84 8.65969 31.0667 8.17969 31.28C7.72635 31.4933 7.23302 31.6 6.69969 31.6C5.36635 31.6 4.69969 30.4 4.69969 28C4.69969 25.6 5.24635 22.52 6.33969 18.76C5.16635 18.8933 4.12635 19.0267 3.21969 19.16C2.33969 19.2933 1.64635 19.36 1.13969 19.36C0.633021 19.36 0.379687 19.2267 0.379687 18.96C0.379687 18.16 1.03302 17.3467 2.33969 16.52C3.67302 15.6933 5.47302 15.0667 7.73969 14.64C10.2464 8.26667 13.313 4.01333 16.9397 1.88C18.273 1.08 19.6864 0.679999 21.1797 0.679999C23.8464 0.706666 25.7664 1.42667 26.9397 2.84C28.1397 4.25333 28.7397 6.13333 28.7397 8.48C28.7664 10.8 28.0597 13.8267 26.6197 17.56C26.0864 19 25.593 20.3067 25.1397 21.48C24.6864 22.6533 24.4597 23.6 24.4597 24.32C24.4597 25.04 24.513 25.5867 24.6197 25.96C24.7264 26.3333 24.9797 26.52 25.3797 26.52C26.0997 26.52 27.793 25.1333 30.4597 22.36C30.9397 21.8267 31.2864 21.56 31.4997 21.56ZM22.9797 9.64C22.9797 7.32 22.113 6.16 20.3797 6.16C18.6197 6.16 17.0997 6.90667 15.8197 8.4C14.5664 9.86667 13.593 11.84 12.8997 14.32L21.9797 14.44C22.6464 12.3067 22.9797 10.7067 22.9797 9.64ZM33.5522 12.2C31.5789 11.3467 30.5922 10.52 30.5922 9.72C30.5922 9.29333 30.7655 9.09333 31.1122 9.12C31.5922 9.12 32.1389 9.24 32.7522 9.48C33.3655 9.69333 33.9922 9.86667 34.6322 10C36.8189 5.86667 39.2989 3.16 42.0722 1.88C43.0055 1.45333 43.9389 1.22667 44.8722 1.2C46.7122 1.2 48.1122 1.65333 49.0722 2.56C50.0589 3.44 50.5522 4.52 50.5522 5.8C50.5522 8.09333 49.3122 9.86667 46.8322 11.12C44.8055 12.1333 42.0455 12.76 38.5522 13C37.2989 16.0933 36.6722 19.4133 36.6722 22.96C36.6722 25.6 37.2855 27.1333 38.5122 27.56C39.3655 27.8533 40.0055 27.8667 40.4322 27.6C40.8589 27.3067 41.1922 26.9333 41.4322 26.48C41.6722 26 41.7922 25.3067 41.7922 24.4C41.8189 23.4933 41.5655 22.7333 41.0322 22.12C40.5255 21.48 40.0322 20.8933 39.5522 20.36C39.7922 19.48 40.1389 18.7467 40.5922 18.16C41.4455 17.0133 42.1789 16.44 42.7922 16.44C43.4055 16.44 43.8989 16.6533 44.2722 17.08C44.6722 17.5067 44.9922 18.04 45.2322 18.68C45.4722 19.32 45.6589 20.0133 45.7922 20.76C45.9522 21.5067 46.1255 22.2 46.3122 22.84C46.4989 23.48 46.7255 24.0133 46.9922 24.44C47.2855 24.8667 47.6589 25.08 48.1122 25.08C48.5922 25.08 49.0189 24.9067 49.3922 24.56C49.7655 24.1867 50.0989 23.7867 50.3922 23.36C50.6855 22.9333 50.9522 22.5467 51.1922 22.2C51.4322 21.8267 51.6722 21.64 51.9122 21.64C52.1789 21.64 52.4322 21.8533 52.6722 22.28C52.9389 22.7067 53.0722 23.1067 53.0722 23.48C53.0722 24.3333 52.6455 25.3467 51.7922 26.52C50.9655 27.6933 49.8989 28.28 48.5922 28.28C47.2855 28.2533 46.2722 27.9733 45.5522 27.44C45.0989 28.56 44.3255 29.4933 43.2322 30.24C42.1389 30.9867 40.5789 31.36 38.5522 31.36C36.5522 31.36 34.8322 30.84 33.3922 29.8C31.6589 28.5467 30.7922 26.6 30.7922 23.96C30.7922 20.2 31.7122 16.28 33.5522 12.2ZM46.1522 6.52C46.1255 5.58667 45.7789 5.12 45.1122 5.12C44.4722 5.12 43.6322 5.61333 42.5922 6.6C41.5522 7.58667 40.5522 8.96 39.5922 10.72C42.4989 10.2133 44.4855 9.32 45.5522 8.04C45.9255 7.56 46.1255 7.05333 46.1522 6.52ZM59.7763 31.12C55.9629 31.1467 53.3629 29.72 51.9763 26.84C51.4963 25.8267 51.2563 24.56 51.2563 23.04C51.2563 21.4933 51.3896 19.8533 51.6563 18.12C52.1896 14.6533 53.2163 11.4533 54.7363 8.52C55.5096 7.02667 56.3763 5.74667 57.3363 4.68C59.4429 2.33333 61.7896 1.17333 64.3763 1.2C65.5229 1.2 66.4163 1.52 67.0563 2.16C67.7229 2.77333 68.0563 3.66667 68.0563 4.84C68.0563 6.01333 67.7096 7.2 67.0163 8.4C66.3229 9.57333 65.4296 10.8 64.3363 12.08C63.2696 13.3333 62.0829 14.6533 60.7763 16.04C59.4696 17.4267 58.1896 18.9333 56.9363 20.56V22.16C56.9363 23.6533 57.2563 24.7467 57.8963 25.44C58.5363 26.1333 59.2829 26.48 60.1363 26.48C62.4296 26.48 64.4563 25.3467 66.2163 23.08C66.9363 22.1467 67.4829 21.68 67.8563 21.68C68.2296 21.68 68.4163 22.1333 68.4163 23.04C68.4163 23.9467 68.1629 24.88 67.6563 25.84C67.1763 26.7733 66.5363 27.64 65.7363 28.44C64.9363 29.2133 64.0163 29.8533 62.9763 30.36C61.9363 30.8667 60.8696 31.12 59.7763 31.12ZM61.9363 9.64C62.4963 8.94667 62.9363 8.32 63.2563 7.76C63.5763 7.2 63.7363 6.62666 63.7363 6.04C63.7363 5.42667 63.5229 5.12 63.0963 5.12C62.1629 5.12 61.1229 6.08 59.9763 8C58.8563 9.92 58.0163 12.44 57.4563 15.56C58.3629 14.1733 59.1896 13.0133 59.9362 12.08C60.7096 11.1467 61.3763 10.3333 61.9363 9.64ZM75.3716 26.64C77.4516 26.64 79.4649 25.8133 81.4116 24.16C82.1316 23.5467 82.7182 22.9867 83.1716 22.48C83.6249 21.9467 83.9716 21.68 84.2116 21.68C84.5849 21.68 84.7716 22.0533 84.7716 22.8C84.7716 23.5467 84.5716 24.3867 84.1716 25.32C83.7716 26.2267 83.1049 27.12 82.1716 28C79.8782 30.16 76.7316 31.24 72.7316 31.24C69.5582 31.24 67.3982 30.0933 66.2516 27.8C65.8516 27 65.6516 25.8533 65.6516 24.36C65.6516 22.8667 65.9449 21.32 66.5316 19.72C67.1182 18.0933 67.8916 16.6933 68.8516 15.52C69.8382 14.3467 70.9716 13.44 72.2516 12.8C73.5316 12.1333 74.8916 11.8 76.3316 11.8C77.7982 11.8 78.9182 12.16 79.6916 12.88C80.4916 13.6 80.8916 14.5333 80.8916 15.68C80.8916 16.8267 80.5982 17.7733 80.0116 18.52C79.4516 19.24 78.7182 19.8533 77.8116 20.36C76.9049 20.84 75.8916 21.28 74.7716 21.68C73.6782 22.0533 72.5982 22.48 71.5316 22.96V23.96C71.5582 24.92 71.9582 25.6 72.7316 26C73.5049 26.4 74.3849 26.6133 75.3716 26.64ZM74.6916 15.36C73.3049 15.36 72.3449 16.9733 71.8116 20.2C72.3716 19.8267 72.8916 19.4933 73.3716 19.2C73.8782 18.9067 74.3182 18.6267 74.6916 18.36C75.4916 17.7733 75.9049 17.1067 75.9316 16.36C75.9316 15.6933 75.5182 15.36 74.6916 15.36ZM118.866 24.52C119.559 24.0133 120.186 23.4 120.746 22.68C121.306 21.9333 121.773 21.56 122.146 21.56C122.546 21.56 122.746 22.1467 122.746 23.32C122.746 24.4667 122.413 25.56 121.746 26.6C121.106 27.6133 120.253 28.4667 119.186 29.16C116.999 30.6 114.413 31.32 111.426 31.32C107.799 31.32 104.986 30.4133 102.986 28.6C100.986 26.7867 99.9859 24.2667 99.9859 21.04C99.9859 17.0667 100.946 13.2933 102.866 9.72C103.506 8.54667 104.226 7.46667 105.026 6.48C104.413 5.76 103.919 5.01333 103.546 4.24C103.199 3.44 103.026 2.84 103.026 2.44C103.026 1.72 103.293 1.36 103.826 1.36C104.199 1.38667 104.626 1.64 105.106 2.12L106.346 3.32C106.666 3.64 106.999 3.90667 107.346 4.12C109.986 1.88 112.826 0.759998 115.866 0.759998C118.933 0.759998 120.919 1.61333 121.826 3.32C122.146 3.96 122.306 4.74667 122.306 5.68C122.306 7.09333 121.693 8.28 120.466 9.24C119.239 10.2 117.586 10.68 115.506 10.68C113.453 10.68 111.319 10.2533 109.106 9.4C107.213 12.6267 106.266 16 106.266 19.52C106.266 24.4 108.213 26.84 112.106 26.84C114.506 26.84 116.759 26.0667 118.866 24.52ZM111.026 6.92C112.386 7.37333 113.866 7.6 115.466 7.6C117.066 7.6 117.866 7.16 117.866 6.28C117.866 5.24 117.213 4.72 115.906 4.72C114.119 4.72 112.493 5.45333 111.026 6.92ZM145.299 21.56C145.779 21.56 146.019 22.1733 146.019 23.4C146.019 24.0667 145.739 24.88 145.179 25.84C144.619 26.7733 143.886 27.64 142.979 28.44C142.099 29.2133 141.112 29.8533 140.019 30.36C138.926 30.8667 137.859 31.12 136.819 31.12C135.406 31.12 134.459 29.88 133.979 27.4C133.286 28.5467 132.379 29.4933 131.259 30.24C130.139 30.96 128.632 31.32 126.739 31.32C124.872 31.32 123.366 30.7333 122.219 29.56C121.072 28.3867 120.512 26.96 120.539 25.28C120.539 20.7467 122.046 17.1733 125.059 14.56C126.339 13.4667 127.526 12.7467 128.619 12.4C129.739 12.0533 130.912 11.88 132.139 11.88C133.366 11.88 134.366 12.0933 135.139 12.52C135.512 11.7467 135.939 11.36 136.419 11.36C137.352 11.36 138.232 11.7733 139.059 12.6C139.912 13.4 140.339 14.16 140.339 14.88C139.966 15.76 139.419 16.8133 138.699 18.04C138.486 19.2667 138.379 20.9867 138.379 23.2C138.379 25.4133 138.659 26.52 139.219 26.52C139.912 26.52 141.592 25.1333 144.259 22.36C144.739 21.8267 145.086 21.56 145.299 21.56ZM126.419 23.96C126.419 26.0133 127.179 27.04 128.699 27.04C130.326 27.0133 131.672 26.1467 132.739 24.44C133.112 23.8533 133.419 23.1333 133.659 22.28C133.659 19.2933 133.926 16.7333 134.459 14.6C132.299 15.0267 130.419 16.0667 128.819 17.72C127.219 19.3733 126.419 21.4533 126.419 23.96ZM149.86 24.28L150.1 29.16C150.1 29.8 149.767 30.3733 149.1 30.88C148.434 31.3867 147.527 31.64 146.38 31.64C145.714 31.64 145.247 31.2933 144.98 30.6C144.74 29.9067 144.62 28.8933 144.62 27.56C144.62 24.76 144.754 22.5733 145.02 21C145.314 19.4 145.874 17.7867 146.7 16.16C145.474 14.9867 144.86 13.9733 144.86 13.12C144.86 11.3333 145.82 10.44 147.74 10.44C148.727 10.44 149.594 10.96 150.34 12C150.874 12.72 151.26 13.56 151.5 14.52C151.874 14.6533 152.34 14.72 152.9 14.72C153.674 14.72 154.567 14.4667 155.58 13.96L156.62 13.44C156.94 13.28 157.22 13.2 157.46 13.2C158.234 13.2 159.007 14.3333 159.78 16.6C159.54 17.64 159.274 18.64 158.98 19.6C158.714 20.56 158.394 21.72 158.02 23.08C157.647 24.44 157.447 25.36 157.42 25.84C157.42 26.2933 157.567 26.52 157.86 26.52C158.26 26.52 158.754 26.2667 159.34 25.76C159.927 25.2533 160.514 24.7067 161.1 24.12C161.687 23.5067 162.22 22.9467 162.7 22.44C163.207 21.9333 163.554 21.68 163.74 21.68C164.114 21.68 164.3 22.1333 164.3 23.04C164.3 24.88 163.487 26.6933 161.86 28.48C160.26 30.2667 158.42 31.1467 156.34 31.12C155.114 31.12 154.194 30.6267 153.58 29.64C152.967 28.6533 152.647 27.4533 152.62 26.04C152.62 23.24 153.247 20.5867 154.5 18.08C153.914 18.32 153.247 18.44 152.5 18.44C151.78 18.44 151.26 18.4133 150.94 18.36C150.7 19.3733 150.46 20.4 150.22 21.44C149.98 22.4533 149.86 23.4 149.86 24.28ZM171.622 26.64C173.702 26.64 175.715 25.8133 177.662 24.16C178.382 23.5467 178.968 22.9867 179.422 22.48C179.875 21.9467 180.222 21.68 180.462 21.68C180.835 21.68 181.022 22.0533 181.022 22.8C181.022 23.5467 180.822 24.3867 180.422 25.32C180.022 26.2267 179.355 27.12 178.422 28C176.128 30.16 172.982 31.24 168.982 31.24C165.808 31.24 163.648 30.0933 162.502 27.8C162.102 27 161.902 25.8533 161.902 24.36C161.902 22.8667 162.195 21.32 162.782 19.72C163.368 18.0933 164.142 16.6933 165.102 15.52C166.088 14.3467 167.222 13.44 168.502 12.8C169.782 12.1333 171.142 11.8 172.582 11.8C174.048 11.8 175.168 12.16 175.942 12.88C176.742 13.6 177.142 14.5333 177.142 15.68C177.142 16.8267 176.848 17.7733 176.262 18.52C175.702 19.24 174.968 19.8533 174.062 20.36C173.155 20.84 172.142 21.28 171.022 21.68C169.928 22.0533 168.848 22.48 167.782 22.96V23.96C167.808 24.92 168.208 25.6 168.982 26C169.755 26.4 170.635 26.6133 171.622 26.64ZM170.942 15.36C169.555 15.36 168.595 16.9733 168.062 20.2C168.622 19.8267 169.142 19.4933 169.622 19.2C170.128 18.9067 170.568 18.6267 170.942 18.36C171.742 17.7733 172.155 17.1067 172.182 16.36C172.182 15.6933 171.768 15.36 170.942 15.36Z" fill="#6C2A77"/>
</svg>
